<svg width="24" height="22" viewBox="0 0 24 22" fill="none" xmlns="http://www.w3.org/2000/svg">
<path fill-rule="evenodd" clip-rule="evenodd" d="M18.8185 0.424035C20.0109 0.147776 21.3926 0.38339 22.5354 1.70675C23.8788 3.26221 24.1359 4.68499 23.9442 5.79225C23.8521 6.32437 23.6628 6.74508 23.494 7.03583C23.4094 7.18166 23.3287 7.297 23.2654 7.37997C23.2337 7.42156 23.2061 7.45531 23.1842 7.48099C23.1733 7.49385 23.1638 7.50471 23.1559 7.51357L23.1453 7.52534L23.1409 7.5301L23.139 7.53219L23.1381 7.53316L23.1372 7.53409L23.1278 7.54417L12.9059 17.8445C12.7832 17.9682 12.6581 18.0961 12.5302 18.2267C11.3419 19.4409 9.91908 20.8949 8.0191 21.4402C6.50668 21.8742 4.54121 21.8477 2.69633 20.2199C1.47442 19.1417 0.77261 18.0163 0.453439 16.9034C0.134812 15.7924 0.216207 14.7592 0.455998 13.8926C0.694052 13.0323 1.0901 12.327 1.41934 11.8419C1.58525 11.5975 1.7378 11.4038 1.85144 11.2684C1.90837 11.2006 1.95586 11.1471 1.99079 11.1088C2.00827 11.0896 2.02263 11.0742 2.0335 11.0627L2.04715 11.0484L2.05192 11.0435L2.05379 11.0416L2.05458 11.0408C2.05458 11.0408 2.04715 11.0484 2.05192 11.0435L2.05529 11.04L2.06391 11.0312L10.6577 2.50004C11.0105 2.14985 11.5803 2.15193 11.9305 2.50468C12.2807 2.85743 12.2786 3.42728 11.9259 3.77746L3.3399 12.301C3.33623 12.3049 3.32973 12.3118 3.32069 12.3217C3.3012 12.3431 3.27004 12.3781 3.23003 12.4258C3.14979 12.5213 3.03531 12.6663 2.90865 12.8529C2.65276 13.2299 2.36149 13.7558 2.19081 14.3727C2.02186 14.9832 1.97311 15.6729 2.18369 16.4072C2.39373 17.1396 2.88048 17.9818 3.88725 18.8702C5.17075 20.0027 6.45889 20.0153 7.52256 19.71C8.93906 19.3035 10.0221 18.205 11.2796 16.9295C11.3943 16.8132 11.5104 16.6954 11.6283 16.5766L21.819 6.30768C21.8228 6.30297 21.828 6.29645 21.8343 6.28815C21.8574 6.25785 21.8949 6.20522 21.9372 6.13231C22.0224 5.98556 22.1221 5.76566 22.1706 5.48528C22.2602 4.96756 22.2048 4.07784 21.1731 2.88325C20.5122 2.11795 19.8365 2.03585 19.2247 2.17759C18.5388 2.33651 17.9135 2.79606 17.6081 3.12554L17.5943 3.14044L17.5798 3.15471L17.0771 3.65044C16.7569 3.96633 16.2989 4.41818 15.7481 4.96202C14.6463 6.04971 13.1732 7.50522 11.6874 8.97665C10.2014 10.4483 8.70361 11.935 7.55214 13.0855C6.97621 13.661 6.48826 14.151 6.13223 14.5125C5.95397 14.6934 5.81067 14.8402 5.70665 14.9486C5.62583 15.0328 5.58352 15.0787 5.56669 15.0969C5.55871 15.1056 5.55646 15.108 5.55854 15.1054C5.33894 15.3814 5.30678 15.4681 5.30379 15.5282C5.30288 15.5464 5.29094 15.7845 5.82653 16.3071C5.98758 16.4642 6.11046 16.4935 6.20032 16.4981C6.31418 16.5039 6.46322 16.4709 6.64377 16.382C6.82159 16.2944 6.98581 16.1742 7.11111 16.0677C7.17185 16.0161 7.21894 15.9715 7.24906 15.9418C7.26401 15.9271 7.27449 15.9163 7.28005 15.9104L7.28393 15.9064L7.29382 15.8954L15.6819 7.3821C16.0308 7.02804 16.6006 7.02382 16.9547 7.37268C17.3088 7.72153 17.313 8.29137 16.9641 8.64543L8.59767 17.1368L8.58171 17.1537C8.56468 17.1715 8.54168 17.1951 8.51315 17.2233C8.45629 17.2793 8.37635 17.3546 8.27684 17.4392C8.08165 17.6051 7.79252 17.8227 7.43895 17.9968C7.0881 18.1696 6.62769 18.3221 6.10885 18.2957C5.566 18.2681 5.03292 18.0475 4.56955 17.5955C3.85798 16.9013 3.46849 16.1922 3.50602 15.4387C3.54037 14.7489 3.93786 14.2506 4.1332 14.0058C4.139 13.9985 4.14462 13.9914 4.15004 13.9846C4.23937 13.8724 4.51533 13.5889 4.84987 13.2493C5.21097 12.8827 5.7029 12.3887 6.27988 11.8122C7.43423 10.6588 8.93434 9.16982 10.4208 7.69769C11.9075 6.22538 13.3813 4.76917 14.4834 3.68109C15.0345 3.13704 15.4927 2.68499 15.8131 2.36895L16.3027 1.88609C16.7929 1.36336 17.7114 0.680508 18.8185 0.424035Z" fill="#262626"/>
</svg>
